<svg id="b2ab3882-0d03-4463-a563-d63ed874622e" data-name="Layer 1" xmlns="http://www.w3.org/2000/svg" viewBox="0 0 360 357.27"><path d="M258.79,81.28H101.21A19.25,19.25,0,0,0,81.9,100.44V256.83A19.25,19.25,0,0,0,101.21,276H258.79a19.25,19.25,0,0,0,19.31-19.16V100.44A19.25,19.25,0,0,0,258.79,81.28ZM180,234.5c-31.09,0-56.29-25-56.29-55.87s25.2-55.86,56.29-55.86,56.29,25,56.29,55.86S211.09,234.5,180,234.5Zm65.62-101.37a14,14,0,1,1,14.14-14A14.08,14.08,0,0,1,245.62,133.13Z" fill="#fff"/><path d="M180,0C80.59,0,0,80,0,178.63S80.59,357.27,180,357.27s180-80,180-178.64S279.41,0,180,0ZM305.69,256.83a46.78,46.78,0,0,1-46.9,46.54H101.21a46.78,46.78,0,0,1-46.9-46.54V100.44a46.78,46.78,0,0,1,46.9-46.54H258.79a46.78,46.78,0,0,1,46.9,46.54Z" fill="#fff"/></svg>