<svg id="bfd76954-f61f-4078-8a51-d49c3f387ff2" data-name="Layer 2" xmlns="http://www.w3.org/2000/svg" viewBox="0 0 334.9 73.75"><path d="M28.77,159.92a17.13,17.13,0,0,1-6.7-1.26,15.19,15.19,0,0,1-8.38-8.49,16.32,16.32,0,0,1-1.14-6.06,17.05,17.05,0,0,1,1.12-6.2,15.05,15.05,0,0,1,3.23-5.11A15.51,15.51,0,0,1,22,129.3,17.16,17.16,0,0,1,28.83,128a16.68,16.68,0,0,1,6.72,1.29,15.6,15.6,0,0,1,5.06,3.47,14.69,14.69,0,0,1,3.17,5.06,16.64,16.64,0,0,1,1.09,6q0,.77,0,1.47a5.77,5.77,0,0,1-.15,1.17H20.89a9.06,9.06,0,0,0,.89,3.24,7.87,7.87,0,0,0,4.34,3.93,8.14,8.14,0,0,0,2.94.53A9.12,9.12,0,0,0,33.5,153a6.12,6.12,0,0,0,2.85-3l6.76,1.88a13.78,13.78,0,0,1-5.44,5.79A16.82,16.82,0,0,1,28.77,159.92Zm8-18.57a8.19,8.19,0,0,0-2.56-5.55,8.22,8.22,0,0,0-8.46-1.53,7.71,7.71,0,0,0-2.44,1.56,8.07,8.07,0,0,0-1.73,2.41,8.34,8.34,0,0,0-.79,3.11Z" transform="translate(-12.55 -99.04)" fill="#68132a"/><path d="M78.31,159.33H70.43V142.06q0-3.7-1.29-5.41a4.24,4.24,0,0,0-3.58-1.71,6.59,6.59,0,0,0-2.41.48,8.73,8.73,0,0,0-2.33,1.32,10.51,10.51,0,0,0-2,2,8,8,0,0,0-1.3,2.58v18H49.69V128.54H56.8v5.7a11.61,11.61,0,0,1,4.94-4.58A15.76,15.76,0,0,1,69,128a9.21,9.21,0,0,1,4.7,1.06,7.58,7.58,0,0,1,2.83,2.76,11.84,11.84,0,0,1,1.38,3.88,25.91,25.91,0,0,1,.38,4.41Z" transform="translate(-12.55 -99.04)" fill="#68132a"/><path d="M99.46,159.92a17.13,17.13,0,0,1-6.7-1.26,15.39,15.39,0,0,1-5.11-3.44,15.19,15.19,0,0,1-3.26-5.05,16.32,16.32,0,0,1-1.15-6.06,17.05,17.05,0,0,1,1.12-6.2,15.05,15.05,0,0,1,3.23-5.11,15.61,15.61,0,0,1,5.14-3.5A17.16,17.16,0,0,1,99.52,128a16.73,16.73,0,0,1,6.73,1.29,15.56,15.56,0,0,1,5,3.47,14.87,14.87,0,0,1,3.18,5.06,16.85,16.85,0,0,1,1.08,6c0,.51,0,1,0,1.47a6.58,6.58,0,0,1-.15,1.17H91.59a9.26,9.26,0,0,0,.88,3.24,8.11,8.11,0,0,0,1.82,2.41,7.94,7.94,0,0,0,2.53,1.52,8.14,8.14,0,0,0,2.94.53,9.11,9.11,0,0,0,4.43-1.14,6.12,6.12,0,0,0,2.85-3l6.76,1.88a13.81,13.81,0,0,1-5.43,5.79A16.86,16.86,0,0,1,99.46,159.92Zm8-18.57a8.14,8.14,0,0,0-2.55-5.55,8.22,8.22,0,0,0-8.46-1.53A7.49,7.49,0,0,0,94,135.83a7.93,7.93,0,0,0-1.74,2.41,8.54,8.54,0,0,0-.79,3.11Z" transform="translate(-12.55 -99.04)" fill="#68132a"/><path d="M138.72,135.36a15.59,15.59,0,0,0-6.41,1.38,8.06,8.06,0,0,0-4.05,4v18.63h-7.88V128.54h7.23v6.58a13.75,13.75,0,0,1,1.94-2.85,14.63,14.63,0,0,1,2.41-2.2,10.92,10.92,0,0,1,2.61-1.44,7.35,7.35,0,0,1,2.56-.5h1a3.11,3.11,0,0,1,.62.06Z" transform="translate(-12.55 -99.04)" fill="#68132a"/><path d="M153.64,159.51a12.62,12.62,0,0,1-5.64-1.24,13.54,13.54,0,0,1-4.37-3.37,15.39,15.39,0,0,1-2.86-5,18.81,18.81,0,0,1,.06-12.22,16.36,16.36,0,0,1,2.94-5.06A13.49,13.49,0,0,1,154.11,128a12,12,0,0,1,6.29,1.62,13.66,13.66,0,0,1,4.47,4.32v-5.41h6.87v29.32a14.06,14.06,0,0,1-1.29,6.12,13.44,13.44,0,0,1-3.55,4.58,16,16,0,0,1-5.41,2.88,22.41,22.41,0,0,1-6.85,1,19.23,19.23,0,0,1-8.49-1.68,17,17,0,0,1-5.9-4.73l4.29-4.17a12.12,12.12,0,0,0,4.43,3.41,13.39,13.39,0,0,0,5.67,1.23,11.94,11.94,0,0,0,3.5-.5,8.43,8.43,0,0,0,3-1.55,7.29,7.29,0,0,0,2-2.71,9.42,9.42,0,0,0,.74-3.88V154a10.42,10.42,0,0,1-4.29,4.08A12.65,12.65,0,0,1,153.64,159.51Zm2.65-6.29a7.57,7.57,0,0,0,2.47-.41,8.75,8.75,0,0,0,2.17-1.12,8.57,8.57,0,0,0,1.76-1.64,7.73,7.73,0,0,0,1.18-2V140.7a9.53,9.53,0,0,0-3.32-4.34,7.93,7.93,0,0,0-4.73-1.65,6.9,6.9,0,0,0-3.29.79,8.31,8.31,0,0,0-2.53,2.12,9.79,9.79,0,0,0-1.62,3,11.27,11.27,0,0,0-.55,3.52,9.58,9.58,0,0,0,.64,3.53,9.26,9.26,0,0,0,1.79,2.88,8.56,8.56,0,0,0,2.68,1.94A7.88,7.88,0,0,0,156.29,153.22Z" transform="translate(-12.55 -99.04)" fill="#68132a"/><path d="M179.5,165.33a16.72,16.72,0,0,0,1.94.44,10.33,10.33,0,0,0,1.59.15,3.37,3.37,0,0,0,1.41-.3,3,3,0,0,0,1.17-1,10,10,0,0,0,1.06-2c.35-.87.72-1.94,1.12-3.24l-12.17-30.79h8.11l8.35,24,7.4-24h7.4L194,165.45a11.07,11.07,0,0,1-3.82,5.28,10.71,10.71,0,0,1-6.7,2.06,12.39,12.39,0,0,1-1.91-.15,11.11,11.11,0,0,1-2-.5Z" transform="translate(-12.55 -99.04)" fill="#68132a"/><path d="M228.69,159.92a12.38,12.38,0,0,1-6.29-1.59,11.55,11.55,0,0,1-4.35-4.34v5.34h-6.88v-42.9h7.88V134a11.87,11.87,0,0,1,4.32-4.38,12.19,12.19,0,0,1,6.26-1.56,11.58,11.58,0,0,1,5.46,1.29,13.73,13.73,0,0,1,4.26,3.47,15.73,15.73,0,0,1,2.77,5.11,19.77,19.77,0,0,1,1,6.17,17.58,17.58,0,0,1-1.08,6.23,15.82,15.82,0,0,1-3,5,14.32,14.32,0,0,1-4.58,3.38A13.39,13.39,0,0,1,228.69,159.92Zm-2.18-6.7a8.18,8.18,0,0,0,3.47-.73,8.26,8.26,0,0,0,2.7-2,8.91,8.91,0,0,0,1.74-2.88,10,10,0,0,0,.61-3.53,10.71,10.71,0,0,0-.59-3.58,9.33,9.33,0,0,0-1.67-3,8.34,8.34,0,0,0-2.56-2.06,7,7,0,0,0-3.23-.76,7.23,7.23,0,0,0-4.73,1.73,11.53,11.53,0,0,0-3.2,4.26v7.35a6.65,6.65,0,0,0,1.2,2.12,8.88,8.88,0,0,0,1.8,1.61,8.41,8.41,0,0,0,2.17,1.06A7.23,7.23,0,0,0,226.51,153.22Z" transform="translate(-12.55 -99.04)" fill="#f69e19"/><path d="M321.13,128.54h7.46l-12.87,30.79h-6.46L304,145.82l-5.23,13.51h-6.47l-12.81-30.79h7.41L296,151.93l3.76-10-5.4-13.34h6.34l3.24,9.46,3.29-9.46h6.35l-5.35,13.34,3.7,10Z" transform="translate(-12.55 -99.04)" fill="#f69e19"/><path d="M332.17,116.43h7.88v33a3.89,3.89,0,0,0,.82,2.65,3,3,0,0,0,2.35.94,5.82,5.82,0,0,0,1.56-.24,9.9,9.9,0,0,0,1.61-.59l1.06,6a15,15,0,0,1-3.7,1.17,19.69,19.69,0,0,1-3.82.41,7.85,7.85,0,0,1-5.73-2,7.46,7.46,0,0,1-2-5.61Z" transform="translate(-12.55 -99.04)" fill="#f69e19"/><path d="M277.64,137.88a15.17,15.17,0,0,0-8.26-8.58,16.73,16.73,0,0,0-6.73-1.29,16.94,16.94,0,0,0-6.76,1.29,15.12,15.12,0,0,0-8.28,8.58,17.09,17.09,0,0,0,0,12.17,15.36,15.36,0,0,0,3.2,5.08,15.21,15.21,0,0,0,5.08,3.5,18.36,18.36,0,0,0,13.52,0,14.92,14.92,0,0,0,5.06-3.5,15.78,15.78,0,0,0,3.17-5.08,17.23,17.23,0,0,0,0-12.17Z" transform="translate(-12.55 -99.04)" fill="#f69e19"/><path d="M280.71,118.89c5-5.88,5.64-19.85,5.64-19.85s-13.08,2.16-18.08,8-5.65,19.85-5.65,19.85S275.7,124.78,280.71,118.89Z" transform="translate(-12.55 -99.04)" fill="#8a8736"/></svg>